HIERARCHY
ROOT Hips
{
	OFFSET	0	0	0
	CHANNELS 6  Xposition Yposition Zposition Xrotation Yrotation Zrotation
	JOINT Spine
	{
		OFFSET	0	6.43035	1.29592
		CHANNELS 3  Xrotation Yrotation Zrotation
		JOINT Spine1
		{
			OFFSET	0	11.0515	-1.97348
			CHANNELS 3  Xrotation Yrotation Zrotation
			JOINT Spine2
			{
				OFFSET	0	8.37743	0.897934
				CHANNELS 3  Xrotation Yrotation Zrotation
				JOINT Spine3
				{
					OFFSET	0	10.0253	2.97996
					CHANNELS 3  Xrotation Yrotation Zrotation
					JOINT Spine4
					{
						OFFSET	0	14.8406	-1.51958
						CHANNELS 3  Xrotation Yrotation Zrotation
						JOINT Neck
						{
							OFFSET	0	7.0848	-4.96331
							CHANNELS 3  Xrotation Yrotation Zrotation
							JOINT Head
							{
								OFFSET	0	8.50571	-2.54579
								CHANNELS 3  Xrotation Yrotation Zrotation
								End Site
								{
									OFFSET	0	17.7416	-0.858465
								}
							}
						}
					}
					JOINT LeftShoulder
					{
						OFFSET	-4.26272	18.0376	-8.50571
						CHANNELS 3  Xrotation Yrotation Zrotation
						JOINT LeftArm
						{
							OFFSET	-9.26857	-2.54579	3.26613
							CHANNELS 3  Xrotation Yrotation Zrotation
							JOINT LeftForeArm
							{
								OFFSET	-28.2392	-1.28889	2.01568
								CHANNELS 3  Xrotation Yrotation Zrotation
								JOINT LeftHand
								{
									OFFSET	-22.9751	-1.58771	1.63994
									CHANNELS 3  Xrotation Yrotation Zrotation
									End Site
									{
										OFFSET	-8.38477	-0.579434	0.598457
									}
								}
							}
						}
					}
					JOINT RightShoulder
					{
						OFFSET	4.26272	18.0376	-8.50571
						CHANNELS 3  Xrotation Yrotation Zrotation
						JOINT RightArm
						{
							OFFSET	9.26857	-2.54579	3.26613
							CHANNELS 3  Xrotation Yrotation Zrotation
							JOINT RightForeArm
							{
								OFFSET	28.2392	-1.28889	2.01568
								CHANNELS 3  Xrotation Yrotation Zrotation
								JOINT RightHand
								{
									OFFSET	22.9751	-1.58771	1.63994
									CHANNELS 3  Xrotation Yrotation Zrotation
									End Site
									{
										OFFSET	8.38477	-0.579434	0.598457
									}
								}
							}
						}
					}
				}
			}
		}
	}
	JOINT LeftUpLeg
	{
		OFFSET	-8.79432	-3.21518	-0.64796
		CHANNELS 3  Xrotation Yrotation Zrotation
		JOINT LeftLeg
		{
			OFFSET	-1.93242	-37.8649	-0.591911
			CHANNELS 3  Xrotation Yrotation Zrotation
			JOINT LeftFoot
			{
				OFFSET	-1.8889	-34.8184	2.99439
				CHANNELS 3  Xrotation Yrotation Zrotation
				JOINT LeftToeBase
				{
					OFFSET	0	-4.3392	-11.5249
					CHANNELS 3  Xrotation Yrotation Zrotation
					End Site
					{
						OFFSET	0	-1.73568	-6.94272
					}
				}
			}
		}
	}
	JOINT RightUpLeg
	{
		OFFSET	8.79432	-3.21518	-0.64796
		CHANNELS 3  Xrotation Yrotation Zrotation
		JOINT RightLeg
		{
			OFFSET	1.93242	-37.8649	-0.591911
			CHANNELS 3  Xrotation Yrotation Zrotation
			JOINT RightFoot
			{
				OFFSET	1.8889	-34.8184	2.99439
				CHANNELS 3  Xrotation Yrotation Zrotation
				JOINT RightToeBase
				{
					OFFSET	0	-4.3392	-11.5249
					CHANNELS 3  Xrotation Yrotation Zrotation
					End Site
					{
						OFFSET	0	-1.73568	-6.94272
					}
				}
			}
		}
	}
}
MOTION
Frames: 20
Frame Time: 0.020408
 0 -5.59411 3.22603 -0 0 -0 -0 0 -0 -0 0 -0 -0 0 -0 -0 0 -0 -0 0 -0 -0 0 -0 -0 0 -0 -0 0 -0 -0 0 -0 -0 0 -0 -0 0 -0 -0 0 -0 -0 0 -0 -0 0 -0 -0 0 -0 -0 0 -0 -0 0 -0 -0 0 -0 -0 0 -0 -0 0 -0 -0 0 -0 -0 0 -0 -0 0 -0
 228.164 79.1862 -272.155 146.408 50.2867 -150.136 179.999 179.99 -174.691 166.886 179.98 -171.152 165.45 179.94 -171.152 166.968 179.99 -174.691 5.63842 0.173912 1.76097 32.8737 -20.7897 10.7441 10.9426 -38.3101 3.40911 1.09677 -19.1058 2.35785 153.08 120.395 177.593 179.084 -174.389 178.2 -0 -15.3063 2.29926 0.754799 -12.2805 -1.26172 162.353 156.994 111.296 24.3842 79.9701 -22.3202 -0 -14.9771 -19.5123 126.696 -177.396 -177.407 65.4482 165.168 179.863 13.7239 0.046157 -11.4479 175.354 180 -180 149.761 -148.912 -175.44 145.9 168.719 179.847 17.3895 0.0213507 -1.35111 179.344 180 -180
 230.302 78.5689 -275.382 155.911 49.8273 -155.761 0.00101468 -0.0124189 4.67097 166.67 -179.975 -172.215 165.283 -179.926 -172.215 166.931 -179.988 -175.329 5.30903 0.1441 1.55031 31.9731 -21.1253 9.58289 10.4796 -37.0582 2.79057 1.34222 -20.2708 2.89386 153.211 120.118 177.677 179.017 -174.224 178.353 -0 -14.8231 2.19341 1.41798 -13.3898 -2.33275 164.737 157.29 109.529 12.3796 76.1986 -10.151 -0 -15.4319 -17.5083 128.219 -177.498 -179.058 64.8581 165.508 179.871 23.3244 0.0990303 -11.5107 175.373 180 -180 148.288 -149.172 -174.111 144.967 168.43 -179.505 17.2383 -0.0714995 -1.38999 179.359 180 -180
 229.792 78.9065 -274.637 158.251 46.336 -159.026 0.000387968 -0.00466742 4.75165 166.295 -179.991 -172.081 164.908 -179.972 -172.081 166.692 -179.995 -175.248 5.16096 0.142512 1.57746 32.0493 -22.5162 8.44835 10.3743 -36.5185 2.19704 1.40414 -21.3414 3.03403 153.534 119.311 178.135 178.902 -174.454 178.416 -0 -14.1362 2.10606 1.16601 -14.0284 -1.89928 170.269 157.012 108.032 11.1786 78.1924 -9.12298 -0 -15.8301 -15.9434 128.847 -176.37 179.68 65.434 166.002 179.631 26.4315 0.0465953 -11.4718 175.388 180 -180 146.614 -148.498 -175.19 143.458 168.399 179.962 21.2294 -0.0359074 -1.40354 179.377 180 -180
 229.432 79.084 -274.449 157.169 45.4909 -158.939 0.00117964 -0.013569 4.96859 165.949 -179.973 -171.719 164.532 -179.919 -171.719 166.356 -179.986 -175.031 5.28793 0.152679 1.64915 32.9465 -23.4144 8.17936 10.6281 -36.4993 2.04744 1.28872 -21.9668 2.78749 154.217 118.653 177.826 178.762 -174.366 178.356 -0 -13.3498 1.9672 0.759384 -14.8403 -1.22106 175.058 156.897 105.363 11.4046 79.8834 -9.55594 -0 -16.0867 -14.8762 128.521 -175.482 178.158 65.4657 166.253 -179.892 26.7401 0.028684 -11.4602 175.401 180 -180 145.388 -147.383 -175.416 142.444 168.263 179.678 22.0686 0.0185545 -1.47187 179.389 180 -180
 229.197 79.5512 -275.209 157.701 44.9324 -159.236 0.000864291 -0.00994292 4.96797 165.69 -179.98 -171.72 164.256 -179.941 -171.72 166.14 -179.99 -175.032 5.30366 0.153112 1.6489 33.3317 -23.5497 8.37237 10.7736 -36.7611 2.13883 1.14533 -22.4264 2.47896 155.409 118.983 176.539 178.632 -174.269 178.229 -0 -12.5726 1.85644 0.284449 -15.6937 -0.451077 175.772 157.168 103.655 9.58925 79.5066 -7.87728 -0 -16.7625 -14.3945 127.573 -175.125 178.691 64.5988 166.446 -179.971 26.7259 0.0439907 -11.4168 175.414 180 -180 142.88 -146.099 -175.521 141.037 168.316 179.764 22.5922 0.0117647 -1.46983 179.4 180 -180
 229.302 79.6436 -275.965 158.348 45.3164 -158.686 179.999 179.991 -175.304 165.57 179.982 -172.174 164.118 179.946 -172.174 166.04 179.991 -175.304 5.31758 0.145092 1.55845 33.5968 -23.6573 8.67974 10.9022 -37.2655 2.28738 1.20989 -23.3996 2.62227 156.537 119.039 175.261 178.509 -174.403 178.315 -0 -11.7545 1.83552 179.883 -163.656 -179.817 175.985 157.348 101.403 9.12339 79.6733 -7.21619 -0 -17.3777 -13.8149 126.135 -175.882 -179.392 63.2028 166.404 179.899 25.9125 0.0433334 -11.3999 175.422 180 -180 140.378 -143.951 -175.649 139.905 168.645 179.708 22.6129 -0.00409265 -1.40362 179.409 180 -180
 229.059 79.3652 -275.522 157.213 46.5879 -158.789 0.000689701 -0.0082419 4.7835 165.444 -179.984 -172.027 164.006 -179.951 -172.027 165.967 -179.992 -175.216 5.24402 0.145771 1.58782 33.5356 -23.607 8.83061 10.9071 -37.5166 2.36326 1.00267 -25.8315 2.17741 157.451 119.504 172.988 178.403 -174.259 177.947 -0 -10.9669 1.6749 179.344 -162.771 -178.986 176.116 157.682 100.602 8.02105 79.438 -6.34855 -0 -18.1098 -13.2127 124.868 -176.896 -178.318 62.2279 166.441 -179.907 25.9167 -0.0995606 -11.3941 175.43 180 -180 138.073 -142.193 -175.428 137.946 168.84 179.813 22.4244 0.108249 -1.38787 179.417 180 -180
 229.607 78.7161 -276.366 154.321 44.6344 -157.26 0.000951618 -0.0120223 4.52577 165.424 -179.976 -172.457 163.979 -179.928 -172.457 165.926 -179.988 -175.474 5.30279 0.139454 1.50213 33.9725 -23.946 9.35301 11.1346 -38.5442 2.61686 0.921928 -28.1972 2.00257 158.203 119.749 171.483 178.32 -174.271 178.145 -0 -10.1409 1.5695 178.708 -162.283 -178.019 177.106 157.919 100.569 7.69343 79.3969 -6.01252 -0 -18.6669 -12.8008 122.197 -176.911 -177.488 61.1924 166.227 179.767 28.3568 -0.0444631 -11.4631 175.439 180 -180 135.365 -140.881 -174.291 134.976 169.334 -179.877 22.1093 -0.00862227 -1.27491 179.425 180 -180
 228.55 78.6284 -276.026 153.348 45.3507 -155.864 0.0030864 -0.0413144 4.27235 165.274 -179.918 -172.879 163.923 -179.753 -172.879 166.064 -179.959 -175.728 4.6891 0.116444 1.41935 32.0829 -23.4498 8.94428 10.4933 -38.3674 2.40019 0.899374 -28.3626 1.95348 158.636 119.548 171.795 178.316 -174.263 178.058 -0 -9.55673 1.47868 178.396 -161.11 -177.592 177.549 157.93 100.129 8.81482 79.9153 -7.15922 -0 -19.1034 -12.5056 120.092 -177.863 -176.84 59.9545 166.049 -179.661 30.6441 -0.26426 -11.4015 175.447 180 -180 134.271 -139.622 -173.245 131.39 169.68 179.94 22.204 0.144231 -1.22076 179.432 180 -180
 228.547 78.8529 -275.658 152.144 45.4849 -154.369 0.00138015 -0.019211 4.10917 164.893 -179.962 -173.151 163.624 -179.885 -173.151 166.093 -179.981 -175.891 3.90823 0.0933762 1.36654 29.9355 -23.1887 8.29091 9.74074 -38.1114 2.04034 1.05321 -28.6335 2.28754 158.778 119.083 172.43 178.288 -174.272 178.076 -0 -9.07618 1.49543 177.775 -160.553 -176.691 178.118 158.362 101.726 10.5399 80.7402 -8.6717 -0 -19.5058 -12.4154 118.864 -178.9 -177.225 58.9947 165.448 -179.67 35.7649 -0.0570956 -11.4551 175.456 180 -180 135.479 -138.326 -171.381 128.042 170.088 -179.917 21.3416 0.249835 -1.16558 179.437 180 -180
 227.721 78.9629 -276.213 147.946 47.3407 -148.722 0.000581385 -0.00892325 3.72778 164.541 -179.982 -173.787 163.292 -179.947 -173.787 165.934 -179.991 -176.272 3.61683 0.0783995 1.24012 29.3951 -23.156 8.20295 9.56277 -38.2098 1.98191 1.17114 -28.8352 2.54359 158.534 119.107 172.524 178.225 -174.237 178.008 -0 -8.65314 1.53979 177.265 -160.158 -175.96 178.099 158.139 102.264 12.9088 81.4923 -10.8627 -0 -19.8524 -12.3744 117.21 179.908 -177.732 58.0539 164.951 -179.901 38.447 0.0727531 -11.4822 175.462 180 -180 138.471 -137.206 -168.509 124.948 170.922 -179.909 20.4732 0.0107098 -0.987286 179.442 180 -180
 226.751 80.7913 -277.012 143.931 48.282 -144.986 0.000911732 -0.0128056 4.07246 164.242 -179.975 -173.213 162.868 -179.924 -173.213 165.353 -179.987 -175.928 4.40613 0.104309 1.35347 31.9602 -21.6873 9.99759 10.5652 -38.3766 2.97017 1.22181 -28.6771 2.65387 158.84 119.028 172.13 178.146 -174.39 177.886 -0 -7.99693 1.48643 177.422 -159.747 -176.221 176.267 156.59 100.994 16.7075 81.9832 -14.6274 -0 -20.0698 -12.5524 116.267 178.869 -178.05 57.6381 164.587 179.957 40.4541 0.0633631 -11.4997 175.468 180 -180 140.388 -136.587 -166.978 121.306 171.653 -179.759 19.5383 -0.0873348 -0.808598 179.446 180 -180
 227.162 80.54 -278.033 145.047 49.6309 -147.526 179.999 179.992 -175.712 163.798 179.984 -172.853 162.511 179.953 -172.853 165.349 179.992 -175.712 3.58261 0.0893441 1.4267 29.4238 -20.0359 9.77344 9.68755 -37.3334 2.8071 1.56409 -28.6195 3.39801 158.776 119.671 171.372 177.956 -174.023 178.153 -0 -6.95686 1.74357 177.699 -157.481 -176.778 176.147 155.069 100.687 39.6033 85.9079 -37.8015 -0 -19.7071 -12.4204 115.521 176.197 -177.34 56.3377 164.243 -179.757 39.6504 0.118142 -11.4932 175.48 180 -180 143.01 -137.413 -165.234 117.38 172.338 -179.562 17.8543 -0.0329999 -0.620762 179.448 180 -180
 227.376 79.5802 -278.213 144.856 48.9092 -148.538 179.999 179.986 -176.033 163.434 179.971 -173.388 162.214 179.914 -173.388 165.318 179.986 -176.033 2.96906 0.0685056 1.32058 27.5957 -19.2861 8.87514 8.96493 -35.718 2.33635 1.59465 -28.6692 3.46439 158.47 121.147 170.649 177.733 -174.234 178.108 -0 -5.84083 2.12216 178.006 -156.822 -177.247 176.768 155.361 100.193 119.472 86.7192 -117.413 -0 -19.142 -12.0991 114.497 173.484 -176.394 55.2073 164.049 -179.807 40.3081 -0.0157525 -11.462 175.494 180 -180 144.663 -138.387 -163.227 113.548 172.94 -179.729 18.2527 0.0186054 -0.416642 179.453 180 -180
 226.691 79.3883 -277.542 144.905 47.7749 -149.465 179.998 179.972 -176.083 163.185 179.945 -173.471 161.99 179.834 -173.471 165.244 179.972 -176.083 2.6759 0.0609725 1.30435 26.8418 -19.2937 8.10329 8.63604 -34.7485 1.9689 1.4922 -28.4708 3.24186 157.817 123.289 171.456 177.569 -174.366 178.189 -0 -4.8568 2.72709 178.307 -157.099 -177.65 178.099 155.9 100.445 149.614 83.9448 -147.962 -0 -18.6085 -11.8818 113.266 172.147 -176.625 54.3984 163.717 179.743 40.8474 0.023132 -11.4993 175.506 180 -180 145.952 -139.327 -161.346 109.347 173.553 179.94 16.1634 0.0102533 -0.241172 179.456 180 -180
 225.195 79.4041 -276.744 143.277 46.7765 -149.675 179.999 179.981 -175.972 162.955 179.961 -173.286 161.817 179.884 -173.286 165.254 179.981 -175.972 2.21621 0.0519376 1.34183 25.7136 -20.1413 6.82851 8.17348 -34.1342 1.3568 1.24812 -28.5579 2.71118 157.225 125.058 173.18 177.478 -174.459 178.068 -0 -3.46796 3.24331 179.089 -157.107 -178.736 0.0681232 23.0949 -79.5794 159.376 80.7868 -157.882 -0 -17.9798 -11.676 112.625 171.06 -178.753 54.2347 163.675 -179.825 40.3114 -0.125318 -11.4416 175.517 180 -180 147.12 -140.353 -159.077 104.691 174.136 179.742 15.7563 0.0329057 -0.038781 179.457 180 -180
 223.848 79.8188 -276.191 141.847 45.535 -149.396 180 179.997 -175.887 162.737 179.995 -173.145 161.588 179.985 -173.145 165.049 179.997 -175.887 2.27723 0.05449 1.37 26.2818 -21.2131 6.32221 8.33088 -34.3377 1.13602 0.988654 -28.6793 2.14724 156.801 125.997 174.316 177.448 -174.443 178.003 -0 -1.45393 3.61416 179.907 -157.275 -179.87 1.50037 22.4267 -79.3682 163.568 77.8345 -162.222 -0 -17.2977 -11.653 111.218 170.964 179.392 54.6602 163.474 -179.846 40.0857 -0.0918837 -11.4435 175.529 180 -180 148.235 -141.531 -156.692 99.2785 174.423 179.821 14.7678 0.0358053 0.0773705 179.46 180 -180
 223.358 79.8059 -276.314 140.033 45.4575 -148.653 0.000652103 -0.00908109 4.1073 162.446 -179.982 -173.155 161.347 -179.946 -173.155 164.985 -179.991 -175.893 1.87575 0.0448222 1.36837 25.5965 -22.9636 5.12891 8.06174 -34.8627 0.56459 1.05553 -28.7462 2.29248 156.316 126.215 176.17 177.533 -174.365 178.156 -0 0.69399 3.75324 0.313955 -22.9403 -0.435111 3.39729 21.0743 -78.4576 165.489 75.9694 -163.996 -0 -16.747 -11.8319 110.406 170.945 178.521 54.9901 163.407 -179.862 40.0533 -0.0755267 -11.4555 175.539 180 -180 149.437 -142.119 -154.301 94.321 174.884 179.913 13.225 -0.0102037 0.264303 179.462 180 -180
 222.279 79.3393 -276.08 139.102 45.4239 -150.032 180 179.997 -175.664 162.194 179.994 -172.773 161.128 179.983 -172.773 164.937 179.997 -175.664 1.51409 0.0381969 1.4448 24.9407 -24.0537 4.53047 7.84116 -35.6169 0.263645 1.25123 -28.6433 2.71785 155.766 125.633 178.369 177.633 -174.29 178.242 -0 2.57551 3.75172 1.04312 -22.8586 -1.44855 5.5068 19.2292 -77.9796 166.875 74.7945 -165.428 -0 -16.3732 -11.905 109.412 170.464 178.577 54.8842 163.314 -179.824 40.6769 -0.00285248 -11.4708 175.548 180 -180 150.732 -141.982 -152.731 90.0007 175.329 179.769 10.9597 0.00649623 0.401213 179.462 180 -180
